<svg xmlns="http://www.w3.org/2000/svg" width="144" height="144" viewBox="0 0 144 144">
  <defs>
    <linearGradient id="bg" x1="10" y1="0" x2="134" y2="144" gradientUnits="userSpaceOnUse">
      <stop offset="0" stop-color="#16386e"/>
      <stop offset=".45" stop-color="#07162d"/>
      <stop offset="1" stop-color="#020617"/>
    </linearGradient>
  </defs>
  <rect width="144" height="144" rx="26" fill="url(#bg)"/>
  <circle cx="108" cy="42" r="42" fill="#38bdf8" opacity=".25"/>
  <path d="M0 0h25L0 25Z" fill="#38bdf8" opacity=".78"/>
  <path d="M144 144h-25l25-25Z" fill="#2563eb" opacity=".78"/>
  <text x="16" y="31" fill="#7dd3fc" font-family="Arial, sans-serif" font-size="10.5" font-weight="900">BADETEMP</text>
  <text x="15" y="72" fill="#fff" font-family="Arial, sans-serif" font-size="56" font-weight="900">--</text>
  <text x="16" y="97" fill="#e2e8f0" font-family="Arial, sans-serif" font-size="12.5" font-weight="900">VELG STED</text>
  <text x="16" y="117" fill="#cbd5e1" font-family="Arial, sans-serif" font-size="9.5" font-weight="800">YR - OPPDATERER</text>
  <g transform="translate(95 93)">
    <circle cx="18" cy="18" r="18" fill="#075985" opacity=".92"/>
    <circle cx="26" cy="10" r="11" fill="#38bdf8" opacity=".22"/>
    <path d="M7 22c4.2-4.1 8.4-4.1 12.6 0 3.2 3.2 6.4 3.2 9.6 0" fill="none" stroke="#e0f2fe" stroke-width="3.2" stroke-linecap="round"/>
    <path d="M7 29c4.2-4.1 8.4-4.1 12.6 0 3.2 3.2 6.4 3.2 9.6 0" fill="none" stroke="#38bdf8" stroke-width="3.2" stroke-linecap="round"/>
  </g>
</svg>
